<!-- comment -->
<svg xmlns="http://www.w3.org/2000/svg" viewBox="0 0 556 556"><g stroke-width="8" transform="translate(0 259)"><circle cx="278" cy="19" r="278" fill="#e6e9eb"/><path fill="#78372d" stroke="#585858" d="M79-179h79v79H79z"/><path fill="#783c37" stroke="#585858" d="M238-179h79v79h-79z"/><path fill="salmon" stroke="#585858" d="M397-179h79v79h-79z"/><path fill="#6e322d" stroke="#585858" d="M79-100h79v79H79z"/><path fill="#a0281e" stroke="#585858" d="M238-100h79v79h-79z"/><path fill="#502823" stroke="#585858" d="M397-100h79v79h-79z"/><path fill="#a02d1e" stroke="#585858" d="M79-21h79v79H79z"/><path fill="#a52d1e" stroke="#585858" d="M397-21h79v79h-79z"/><path fill="#4b231e" stroke="#585858" d="M79 59h79v79H79z"/><path fill="#6e3732" stroke="#585858" d="M397 59h79v79h-79z"/><path fill="#643228" stroke="#585858" d="M79 138h79v79H79z"/><path fill="#784641" stroke="#585858" d="M397 138h79v79h-79z"/><path fill="#643732" stroke="#585858" d="M159-100h79v79h-79z"/><path fill="#73322d" stroke="#585858" d="M159-21h79v79h-79z"/><path fill="#7d322d" stroke="#585858" d="M159 59h79v79h-79z"/><path fill="#a02814" stroke="#585858" d="M159 138h79v79h-79z"/><path fill="#733c37" stroke="#585858" d="M318-100h79v79h-79zM318-21h79v79h-79z"/><path fill="#8c3c37" stroke="#585858" d="M318 59h79v79h-79z"/><path fill="#642d28" stroke="#585858" d="M318 138h79v79h-79z"/><path fill="#a03c32" stroke="#585858" d="M397-179h79v79h-79z"/></g></svg>