<svg xmlns="http://www.w3.org/2000/svg" width="1000" height="1000" viewBox="0 0 265 265"><g transform="translate(-80 -6)"><path style="line-height:normal;font-variant-ligatures:normal;font-variant-position:normal;font-variant-caps:normal;font-variant-numeric:normal;font-variant-alternates:normal;font-feature-settings:normal;text-indent:0;text-align:start;text-decoration-line:none;text-decoration-style:solid;text-decoration-color:#000;text-transform:none;text-orientation:mixed;white-space:normal;shape-padding:0;isolation:auto;mix-blend-mode:normal;solid-color:#000;solid-opacity:1" d="M212 6a132 132 0 1 1 0 265 132 132 0 0 1 0-265zm0 11a122 122 0 1 0 0 243 122 122 0 0 0 0-243z" color="#000" font-weight="400" font-family="sans-serif" overflow="visible" fill="#a9a9a9"/><circle cx="212" cy="138" r="122" fill="#dcdcdc"/><circle cx="212" cy="138" r="131" fill="none" stroke="gray" stroke-width="3" stroke-linecap="round" stroke-linejoin="round"/><ellipse cx="212" cy="138" rx="123" ry="123" fill="none" stroke="gray" stroke-width="3" stroke-linecap="round" stroke-linejoin="round"/><g font-weight="400" font-family="Quant Antiqua" word-spacing="0" fill="#a9a9a9" stroke="gray"><path d="M239 140l1 5h-1l-3-2-4-1h-1v7h6l4 2q2 1 2 4 0 4-3 5l-5 1h-11v-1l2-1v-17h-2v-2zm-8 11v8l2 1q5-1 4-5l-1-4h-5z" aria-label="Б" font-size="25" letter-spacing="3" stroke-width="2" paint-order="markers stroke fill"/><path d="M291 160l2-1 1-1 2-3 1-3q-2 0-3-2-2-1-2-3 0-3 2-4 1-2 3-2l5-1h9v2h-2v18h2v1h-9v-1l2-1v-6h-2l-5 8h-6zm13-9v-8l-1-1h-1l-3 1-1 4 1 3 3 1z" aria-label="Я" font-size="25" letter-spacing="3" stroke-width="2" paint-order="markers stroke fill"/><path d="M156 140h9l7 1q3 1 2 5 0 4-4 5l2 4 2 4 2 1v1h-6l-5-9h-2v7l1 1h1v1h-9v-1h2v-18h-2zm7 4v6h2q4 0 4-4t-4-4h-2v2z" aria-label="R" font-size="25" letter-spacing="3" stroke-width="2" paint-order="stroke fill markers"/><path d="M261 140h17v2h-2l-1 2v13l1 2h2v2h-10v-2h3v-15l-1-2h-3l-1 2v1l-1 8-2 6q-1 2-3 2h-3l-1-3 1-2h2l1 1v1l1 1 1-2 2-6v-9h-3z" aria-label="Л" font-size="25" letter-spacing="3" stroke-width="2" paint-order="markers stroke fill"/><path d="M189 140h10v2h-2l-1 2v10q0 6 5 6l3-1q2-1 2-3v-14h-2v-2h6v2h-2v16l-3 3h-5l-6-1q-2-1-2-3v-14l-1-1h-2z" aria-label="U" font-size="25" letter-spacing="3" stroke-width="2" paint-order="markers stroke fill"/><path d="M122 138v-3q5 0 7-2t2-6l-1-5q-1-2-5-2t-4 2v1l1 1v3q0 3-3 3l-3-1-1-3 1-4q2-3 5-4 3-2 8-1 6 0 9 3t3 6q0 4-2 7l-6 3v1q4 0 7 4 3 3 3 7t-2 7q-2 3-5 4-4 2-9 2l-8-1-5-4-1-5 1-5 4-1 2 1 1 2v4h-1v1l-1 1q0 2 2 3l4 1q3 0 5-3t2-7q0-4-2-7t-8-3z" aria-label="3" font-size="20" letter-spacing="0" paint-order="markers stroke fill"/></g></g></svg>